<svg xmlns="http://www.w3.org/2000/svg" version="1.1" xmlns:xlink="http://www.w3.org/1999/xlink" xmlns:svgjs="http://svgjs.com/svgjs" width="1440" height="560" preserveAspectRatio="none" viewBox="0 0 1440 560"><g mask="url(&quot;#SvgjsMask1002&quot;)" fill="none"><path d="M-109.24 388.93L-109.24 388.93" stroke="#132e65" stroke-width="1.5"></path><path d="M-109.24 388.93L-40.38 500.52" stroke="#132e65" stroke-width="1.5"></path><path d="M-40.38 500.52L-40.38 500.52" stroke="#132e65" stroke-width="1.5"></path><path d="M-102.15 681.15L-102.15 681.15" stroke="#132e65" stroke-width="1.5"></path><path d="M-102.15 681.15L45.54 670.06" stroke="#132e65" stroke-width="1.5"></path><path d="M-102.15 681.15L-40.38 500.52" stroke="#132e65" stroke-width="1.5"></path><path d="M-102.15 681.15L91.06 522.18" stroke="#132e65" stroke-width="1.5"></path><path d="M-102.15 681.15L-109.24 388.93" stroke="#132e65" stroke-width="1.5"></path><path d="M111 382.5L111 382.5" stroke="#132e65" stroke-width="1.5"></path><path d="M111 382.5L91.06 522.18" stroke="#132e65" stroke-width="1.5"></path><path d="M91.06 522.18L91.06 522.18" stroke="#132e65" stroke-width="1.5"></path><path d="M91.06 522.18L-40.38 500.52" stroke="#132e65" stroke-width="1.5"></path><path d="M91.06 522.18L241.34 539.74" stroke="#132e65" stroke-width="1.5"></path><path d="M91.06 522.18L45.54 670.06" stroke="#132e65" stroke-width="1.5"></path><path d="M91.06 522.18L237.58 663.21" stroke="#132e65" stroke-width="1.5"></path><path d="M91.06 522.18L-109.24 388.93" stroke="#132e65" stroke-width="1.5"></path><path d="M45.54 670.06L45.54 670.06" stroke="#132e65" stroke-width="1.5"></path><path d="M45.54 670.06L-40.38 500.52" stroke="#132e65" stroke-width="1.5"></path><path d="M45.54 670.06L237.58 663.21" stroke="#132e65" stroke-width="1.5"></path><path d="M45.54 670.06L241.34 539.74" stroke="#132e65" stroke-width="1.5"></path><path d="M241.34 539.74L241.34 539.74" stroke="#132e65" stroke-width="1.5"></path><path d="M241.34 539.74L237.58 663.21" stroke="#132e65" stroke-width="1.5"></path><path d="M237.58 663.21L237.58 663.21" stroke="#132e65" stroke-width="1.5"></path><path d="M237.58 663.21L394.29 656.94" stroke="#132e65" stroke-width="1.5"></path><path d="M366.39 511.18L366.39 511.18" stroke="#132e65" stroke-width="1.5"></path><path d="M366.39 511.18L241.34 539.74" stroke="#132e65" stroke-width="1.5"></path><path d="M366.39 511.18L394.29 656.94" stroke="#132e65" stroke-width="1.5"></path><path d="M366.39 511.18L554.6 527.33" stroke="#132e65" stroke-width="1.5"></path><path d="M366.39 511.18L237.58 663.21" stroke="#132e65" stroke-width="1.5"></path><path d="M394.29 656.94L394.29 656.94" stroke="#132e65" stroke-width="1.5"></path><path d="M394.29 656.94L544.44 705.44" stroke="#132e65" stroke-width="1.5"></path><path d="M560.57 340.82L560.57 340.82" stroke="#132e65" stroke-width="1.5"></path><path d="M560.57 340.82L679.14 239.35" stroke="#132e65" stroke-width="1.5"></path><path d="M560.57 340.82L707.82 401.49" stroke="#132e65" stroke-width="1.5"></path><path d="M560.57 340.82L554.6 527.33" stroke="#132e65" stroke-width="1.5"></path><path d="M554.6 527.33L554.6 527.33" stroke="#132e65" stroke-width="1.5"></path><path d="M554.6 527.33L676.91 533.55" stroke="#132e65" stroke-width="1.5"></path><path d="M554.6 527.33L544.44 705.44" stroke="#132e65" stroke-width="1.5"></path><path d="M554.6 527.33L707.82 401.49" stroke="#132e65" stroke-width="1.5"></path><path d="M544.44 705.44L544.44 705.44" stroke="#132e65" stroke-width="1.5"></path><path d="M544.44 705.44L667.21 704.94" stroke="#132e65" stroke-width="1.5"></path><path d="M679.14 239.35L679.14 239.35" stroke="#132e65" stroke-width="1.5"></path><path d="M679.14 239.35L801.68 209" stroke="#132e65" stroke-width="1.5"></path><path d="M679.14 239.35L707.82 401.49" stroke="#132e65" stroke-width="1.5"></path><path d="M679.14 239.35L826.83 403.06" stroke="#132e65" stroke-width="1.5"></path><path d="M679.14 239.35L959.74 215.65" stroke="#132e65" stroke-width="1.5"></path><path d="M707.82 401.49L707.82 401.49" stroke="#132e65" stroke-width="1.5"></path><path d="M707.82 401.49L826.83 403.06" stroke="#132e65" stroke-width="1.5"></path><path d="M707.82 401.49L676.91 533.55" stroke="#132e65" stroke-width="1.5"></path><path d="M676.91 533.55L676.91 533.55" stroke="#132e65" stroke-width="1.5"></path><path d="M676.91 533.55L814.28 505.34" stroke="#132e65" stroke-width="1.5"></path><path d="M676.91 533.55L667.21 704.94" stroke="#132e65" stroke-width="1.5"></path><path d="M667.21 704.94L667.21 704.94" stroke="#132e65" stroke-width="1.5"></path><path d="M667.21 704.94L787.68 705.02" stroke="#132e65" stroke-width="1.5"></path><path d="M801.68 209L801.68 209" stroke="#132e65" stroke-width="1.5"></path><path d="M801.68 209L959.74 215.65" stroke="#132e65" stroke-width="1.5"></path><path d="M801.68 209L826.83 403.06" stroke="#132e65" stroke-width="1.5"></path><path d="M826.83 403.06L826.83 403.06" stroke="#132e65" stroke-width="1.5"></path><path d="M826.83 403.06L814.28 505.34" stroke="#132e65" stroke-width="1.5"></path><path d="M826.83 403.06L1010.87 368.29" stroke="#132e65" stroke-width="1.5"></path><path d="M814.28 505.34L814.28 505.34" stroke="#132e65" stroke-width="1.5"></path><path d="M814.28 505.34L707.82 401.49" stroke="#132e65" stroke-width="1.5"></path><path d="M814.28 505.34L970.2 551.1" stroke="#132e65" stroke-width="1.5"></path><path d="M814.28 505.34L787.68 705.02" stroke="#132e65" stroke-width="1.5"></path><path d="M814.28 505.34L988.99 655.4" stroke="#132e65" stroke-width="1.5"></path><path d="M787.68 705.02L787.68 705.02" stroke="#132e65" stroke-width="1.5"></path><path d="M1006.82 -102.82L1006.82 -102.82" stroke="#132e65" stroke-width="1.5"></path><path d="M1006.82 -102.82L1110.76 -55.1" stroke="#132e65" stroke-width="1.5"></path><path d="M1006.82 -102.82L957.84 85.92" stroke="#132e65" stroke-width="1.5"></path><path d="M1006.82 -102.82L1140.1 84.9" stroke="#132e65" stroke-width="1.5"></path><path d="M1006.82 -102.82L1282.97 -67.82" stroke="#132e65" stroke-width="1.5"></path><path d="M957.84 85.92L957.84 85.92" stroke="#132e65" stroke-width="1.5"></path><path d="M957.84 85.92L959.74 215.65" stroke="#132e65" stroke-width="1.5"></path><path d="M957.84 85.92L1140.1 84.9" stroke="#132e65" stroke-width="1.5"></path><path d="M957.84 85.92L801.68 209" stroke="#132e65" stroke-width="1.5"></path><path d="M957.84 85.92L1110.76 -55.1" stroke="#132e65" stroke-width="1.5"></path><path d="M957.84 85.92L1142.54 229.99" stroke="#132e65" stroke-width="1.5"></path><path d="M959.74 215.65L959.74 215.65" stroke="#132e65" stroke-width="1.5"></path><path d="M959.74 215.65L1010.87 368.29" stroke="#132e65" stroke-width="1.5"></path><path d="M959.74 215.65L1142.54 229.99" stroke="#132e65" stroke-width="1.5"></path><path d="M1010.87 368.29L1010.87 368.29" stroke="#132e65" stroke-width="1.5"></path><path d="M1010.87 368.29L1101.38 384.55" stroke="#132e65" stroke-width="1.5"></path><path d="M1010.87 368.29L970.2 551.1" stroke="#132e65" stroke-width="1.5"></path><path d="M970.2 551.1L970.2 551.1" stroke="#132e65" stroke-width="1.5"></path><path d="M970.2 551.1L988.99 655.4" stroke="#132e65" stroke-width="1.5"></path><path d="M988.99 655.4L988.99 655.4" stroke="#132e65" stroke-width="1.5"></path><path d="M988.99 655.4L1131.37 673.08" stroke="#132e65" stroke-width="1.5"></path><path d="M988.99 655.4L1155.57 544.82" stroke="#132e65" stroke-width="1.5"></path><path d="M988.99 655.4L787.68 705.02" stroke="#132e65" stroke-width="1.5"></path><path d="M1110.76 -55.1L1110.76 -55.1" stroke="#132e65" stroke-width="1.5"></path><path d="M1110.76 -55.1L1140.1 84.9" stroke="#132e65" stroke-width="1.5"></path><path d="M1110.76 -55.1L1282.97 -67.82" stroke="#132e65" stroke-width="1.5"></path><path d="M1110.76 -55.1L1282.13 62.29" stroke="#132e65" stroke-width="1.5"></path><path d="M1140.1 84.9L1140.1 84.9" stroke="#132e65" stroke-width="1.5"></path><path d="M1140.1 84.9L1282.13 62.29" stroke="#132e65" stroke-width="1.5"></path><path d="M1140.1 84.9L1142.54 229.99" stroke="#132e65" stroke-width="1.5"></path><path d="M1142.54 229.99L1142.54 229.99" stroke="#132e65" stroke-width="1.5"></path><path d="M1142.54 229.99L1301.52 227.93" stroke="#132e65" stroke-width="1.5"></path><path d="M1101.38 384.55L1101.38 384.55" stroke="#132e65" stroke-width="1.5"></path><path d="M1101.38 384.55L1142.54 229.99" stroke="#132e65" stroke-width="1.5"></path><path d="M1101.38 384.55L1155.57 544.82" stroke="#132e65" stroke-width="1.5"></path><path d="M1101.38 384.55L1297.15 376.18" stroke="#132e65" stroke-width="1.5"></path><path d="M1101.38 384.55L1261.39 503.2" stroke="#132e65" stroke-width="1.5"></path><path d="M1155.57 544.82L1155.57 544.82" stroke="#132e65" stroke-width="1.5"></path><path d="M1155.57 544.82L1261.39 503.2" stroke="#132e65" stroke-width="1.5"></path><path d="M1131.37 673.08L1131.37 673.08" stroke="#132e65" stroke-width="1.5"></path><path d="M1131.37 673.08L1155.57 544.82" stroke="#132e65" stroke-width="1.5"></path><path d="M1282.97 -67.82L1282.97 -67.82" stroke="#132e65" stroke-width="1.5"></path><path d="M1282.97 -67.82L1282.13 62.29" stroke="#132e65" stroke-width="1.5"></path><path d="M1282.97 -67.82L1408.05 -106.53" stroke="#132e65" stroke-width="1.5"></path><path d="M1282.97 -67.82L1140.1 84.9" stroke="#132e65" stroke-width="1.5"></path><path d="M1282.97 -67.82L1454.8 56.52" stroke="#132e65" stroke-width="1.5"></path><path d="M1282.97 -67.82L1545.76 -96.91" stroke="#132e65" stroke-width="1.5"></path><path d="M1282.13 62.29L1282.13 62.29" stroke="#132e65" stroke-width="1.5"></path><path d="M1301.52 227.93L1301.52 227.93" stroke="#132e65" stroke-width="1.5"></path><path d="M1301.52 227.93L1409.72 260.46" stroke="#132e65" stroke-width="1.5"></path><path d="M1297.15 376.18L1297.15 376.18" stroke="#132e65" stroke-width="1.5"></path><path d="M1297.15 376.18L1261.39 503.2" stroke="#132e65" stroke-width="1.5"></path><path d="M1297.15 376.18L1301.52 227.93" stroke="#132e65" stroke-width="1.5"></path><path d="M1297.15 376.18L1444.71 337.97" stroke="#132e65" stroke-width="1.5"></path><path d="M1297.15 376.18L1409.72 260.46" stroke="#132e65" stroke-width="1.5"></path><path d="M1261.39 503.2L1261.39 503.2" stroke="#132e65" stroke-width="1.5"></path><path d="M1261.39 503.2L1423.4 541.78" stroke="#132e65" stroke-width="1.5"></path><path d="M1261.39 503.2L1307.72 665.04" stroke="#132e65" stroke-width="1.5"></path><path d="M1261.39 503.2L1131.37 673.08" stroke="#132e65" stroke-width="1.5"></path><path d="M1307.72 665.04L1307.72 665.04" stroke="#132e65" stroke-width="1.5"></path><path d="M1307.72 665.04L1421.66 665.87" stroke="#132e65" stroke-width="1.5"></path><path d="M1307.72 665.04L1423.4 541.78" stroke="#132e65" stroke-width="1.5"></path><path d="M1408.05 -106.53L1408.05 -106.53" stroke="#132e65" stroke-width="1.5"></path><path d="M1408.05 -106.53L1545.76 -96.91" stroke="#132e65" stroke-width="1.5"></path><path d="M1408.05 -106.53L1454.8 56.52" stroke="#132e65" stroke-width="1.5"></path><path d="M1408.05 -106.53L1282.13 62.29" stroke="#132e65" stroke-width="1.5"></path><path d="M1454.8 56.52L1454.8 56.52" stroke="#132e65" stroke-width="1.5"></path><path d="M1454.8 56.52L1566.39 81.71" stroke="#132e65" stroke-width="1.5"></path><path d="M1409.72 260.46L1409.72 260.46" stroke="#132e65" stroke-width="1.5"></path><path d="M1409.72 260.46L1444.71 337.97" stroke="#132e65" stroke-width="1.5"></path><path d="M1444.71 337.97L1444.71 337.97" stroke="#132e65" stroke-width="1.5"></path><path d="M1444.71 337.97L1556.95 402.52" stroke="#132e65" stroke-width="1.5"></path><path d="M1423.4 541.78L1423.4 541.78" stroke="#132e65" stroke-width="1.5"></path><path d="M1423.4 541.78L1421.66 665.87" stroke="#132e65" stroke-width="1.5"></path><path d="M1423.4 541.78L1550.51 541.19" stroke="#132e65" stroke-width="1.5"></path><path d="M1423.4 541.78L1556.95 402.52" stroke="#132e65" stroke-width="1.5"></path><path d="M1421.66 665.87L1421.66 665.87" stroke="#132e65" stroke-width="1.5"></path><path d="M1421.66 665.87L1539.53 710.31" stroke="#132e65" stroke-width="1.5"></path><path d="M1545.76 -96.91L1545.76 -96.91" stroke="#132e65" stroke-width="1.5"></path><path d="M1545.76 -96.91L1454.8 56.52" stroke="#132e65" stroke-width="1.5"></path><path d="M1545.76 -96.91L1566.39 81.71" stroke="#132e65" stroke-width="1.5"></path><path d="M1545.76 -96.91L1282.13 62.29" stroke="#132e65" stroke-width="1.5"></path><path d="M1545.76 -96.91L1581.7 223.68" stroke="#132e65" stroke-width="1.5"></path><path d="M1566.39 81.71L1566.39 81.71" stroke="#132e65" stroke-width="1.5"></path><path d="M1581.7 223.68L1581.7 223.68" stroke="#132e65" stroke-width="1.5"></path><path d="M1581.7 223.68L1566.39 81.71" stroke="#132e65" stroke-width="1.5"></path><path d="M1556.95 402.52L1556.95 402.52" stroke="#132e65" stroke-width="1.5"></path><path d="M1556.95 402.52L1550.51 541.19" stroke="#132e65" stroke-width="1.5"></path><path d="M1550.51 541.19L1550.51 541.19" stroke="#132e65" stroke-width="1.5"></path><path d="M1539.53 710.31L1539.53 710.31" stroke="#132e65" stroke-width="1.5"></path><path d="M1539.53 710.31L1550.51 541.19" stroke="#132e65" stroke-width="1.5"></path><path d="M1539.53 710.31L1423.4 541.78" stroke="#132e65" stroke-width="1.5"></path><circle r="5" cx="-109.24" cy="388.93" fill="#132e65"></circle><circle r="5" cx="-40.38" cy="500.52" fill="#132e65"></circle><circle r="5" cx="-102.15" cy="681.15" fill="#132e65"></circle><circle r="5" cx="111" cy="382.5" fill="#132e65"></circle><circle r="5" cx="91.06" cy="522.18" fill="#132e65"></circle><circle r="5" cx="45.54" cy="670.06" fill="#132e65"></circle><circle r="5" cx="241.34" cy="539.74" fill="#132e65"></circle><circle r="5" cx="237.58" cy="663.21" fill="#132e65"></circle><circle r="5" cx="366.39" cy="511.18" fill="#132e65"></circle><circle r="5" cx="394.29" cy="656.94" fill="#132e65"></circle><circle r="5" cx="560.57" cy="340.82" fill="#132e65"></circle><circle r="5" cx="554.6" cy="527.33" fill="#132e65"></circle><circle r="5" cx="544.44" cy="705.44" fill="#132e65"></circle><circle r="5" cx="679.14" cy="239.35" fill="#132e65"></circle><circle r="5" cx="707.82" cy="401.49" fill="#132e65"></circle><circle r="5" cx="676.91" cy="533.55" fill="#132e65"></circle><circle r="5" cx="667.21" cy="704.94" fill="#132e65"></circle><circle r="5" cx="801.68" cy="209" fill="#132e65"></circle><circle r="5" cx="826.83" cy="403.06" fill="#132e65"></circle><circle r="5" cx="814.28" cy="505.34" fill="#132e65"></circle><circle r="5" cx="787.68" cy="705.02" fill="#132e65"></circle><circle r="5" cx="1006.82" cy="-102.82" fill="#132e65"></circle><circle r="5" cx="957.84" cy="85.92" fill="#132e65"></circle><circle r="5" cx="959.74" cy="215.65" fill="#132e65"></circle><circle r="5" cx="1010.87" cy="368.29" fill="#132e65"></circle><circle r="5" cx="970.2" cy="551.1" fill="#132e65"></circle><circle r="5" cx="988.99" cy="655.4" fill="#132e65"></circle><circle r="5" cx="1110.76" cy="-55.1" fill="#132e65"></circle><circle r="5" cx="1140.1" cy="84.9" fill="#132e65"></circle><circle r="5" cx="1142.54" cy="229.99" fill="#132e65"></circle><circle r="5" cx="1101.38" cy="384.55" fill="#132e65"></circle><circle r="5" cx="1155.57" cy="544.82" fill="#132e65"></circle><circle r="5" cx="1131.37" cy="673.08" fill="#132e65"></circle><circle r="5" cx="1282.97" cy="-67.82" fill="#132e65"></circle><circle r="5" cx="1282.13" cy="62.29" fill="#132e65"></circle><circle r="5" cx="1301.52" cy="227.93" fill="#132e65"></circle><circle r="5" cx="1297.15" cy="376.18" fill="#132e65"></circle><circle r="5" cx="1261.39" cy="503.2" fill="#132e65"></circle><circle r="5" cx="1307.72" cy="665.04" fill="#132e65"></circle><circle r="5" cx="1408.05" cy="-106.53" fill="#132e65"></circle><circle r="5" cx="1454.8" cy="56.52" fill="#132e65"></circle><circle r="5" cx="1409.72" cy="260.46" fill="#132e65"></circle><circle r="5" cx="1444.71" cy="337.97" fill="#132e65"></circle><circle r="5" cx="1423.4" cy="541.78" fill="#132e65"></circle><circle r="5" cx="1421.66" cy="665.87" fill="#132e65"></circle><circle r="5" cx="1545.76" cy="-96.91" fill="#132e65"></circle><circle r="5" cx="1566.39" cy="81.71" fill="#132e65"></circle><circle r="5" cx="1581.7" cy="223.68" fill="#132e65"></circle><circle r="5" cx="1556.95" cy="402.52" fill="#132e65"></circle><circle r="5" cx="1550.51" cy="541.19" fill="#132e65"></circle><circle r="5" cx="1539.53" cy="710.31" fill="#132e65"></circle><path d="M-52.74 501.63L-52.74 501.63" stroke="hsl(228.5, 77.2%, 51.5%)" stroke-width="1.5"></path><path d="M-52.74 501.63L46.46 545.42" stroke="hsl(228.5, 77.2%, 51.5%)" stroke-width="1.5"></path><path d="M-52.74 501.63L-96.96 653.6" stroke="hsl(228.5, 77.2%, 51.5%)" stroke-width="1.5"></path><path d="M-52.74 501.63L101.07 685.05" stroke="hsl(228.5, 77.2%, 51.5%)" stroke-width="1.5"></path><path d="M-52.74 501.63L233.97 530.56" stroke="hsl(228.5, 77.2%, 51.5%)" stroke-width="1.5"></path><path d="M-52.74 501.63L205 706.22" stroke="hsl(228.5, 77.2%, 51.5%)" stroke-width="1.5"></path><path d="M384.92 644L384.92 644" stroke="hsl(228.5, 77.2%, 51.5%)" stroke-width="1.5"></path><path d="M384.92 644L380.65 518.68" stroke="hsl(228.5, 77.2%, 51.5%)" stroke-width="1.5"></path><path d="M384.92 644L559.57 666" stroke="hsl(228.5, 77.2%, 51.5%)" stroke-width="1.5"></path><path d="M384.92 644L233.97 530.56" stroke="hsl(228.5, 77.2%, 51.5%)" stroke-width="1.5"></path><path d="M384.92 644L205 706.22" stroke="hsl(228.5, 77.2%, 51.5%)" stroke-width="1.5"></path><path d="M384.92 644L549.36 500.98" stroke="hsl(228.5, 77.2%, 51.5%)" stroke-width="1.5"></path><path d="M384.92 644L670.92 664.9" stroke="hsl(228.5, 77.2%, 51.5%)" stroke-width="1.5"></path><path d="M695.01 537.02L695.01 537.02" stroke="hsl(228.5, 77.2%, 51.5%)" stroke-width="1.5"></path><path d="M695.01 537.02L670.92 664.9" stroke="hsl(228.5, 77.2%, 51.5%)" stroke-width="1.5"></path><path d="M695.01 537.02L549.36 500.98" stroke="hsl(228.5, 77.2%, 51.5%)" stroke-width="1.5"></path><path d="M695.01 537.02L842.66 498.76" stroke="hsl(228.5, 77.2%, 51.5%)" stroke-width="1.5"></path><path d="M1158.77 666.99L1158.77 666.99" stroke="hsl(228.5, 77.2%, 51.5%)" stroke-width="1.5"></path><path d="M1158.77 666.99L1272.95 675.8" stroke="hsl(228.5, 77.2%, 51.5%)" stroke-width="1.5"></path><path d="M1158.77 666.99L1145.32 546.24" stroke="hsl(228.5, 77.2%, 51.5%)" stroke-width="1.5"></path><path d="M1294.57 515.34L1294.57 515.34" stroke="hsl(228.5, 77.2%, 51.5%)" stroke-width="1.5"></path><path d="M1294.57 515.34L1398.27 553.98" stroke="hsl(228.5, 77.2%, 51.5%)" stroke-width="1.5"></path><path d="M1294.57 515.34L1276.08 376.13" stroke="hsl(228.5, 77.2%, 51.5%)" stroke-width="1.5"></path><path d="M1294.57 515.34L1145.32 546.24" stroke="hsl(228.5, 77.2%, 51.5%)" stroke-width="1.5"></path><path d="M1272.95 675.8L1272.95 675.8" stroke="hsl(228.5, 77.2%, 51.5%)" stroke-width="1.5"></path><path d="M1272.95 675.8L1396.31 644.29" stroke="hsl(228.5, 77.2%, 51.5%)" stroke-width="1.5"></path><path d="M1272.95 675.8L1294.57 515.34" stroke="hsl(228.5, 77.2%, 51.5%)" stroke-width="1.5"></path><path d="M1272.95 675.8L1398.27 553.98" stroke="hsl(228.5, 77.2%, 51.5%)" stroke-width="1.5"></path><path d="M1272.95 675.8L1145.32 546.24" stroke="hsl(228.5, 77.2%, 51.5%)" stroke-width="1.5"></path><path d="M1394.94 -91.72L1394.94 -91.72" stroke="hsl(228.5, 77.2%, 51.5%)" stroke-width="1.5"></path><path d="M1394.94 -91.72L1237.74 -100.16" stroke="hsl(228.5, 77.2%, 51.5%)" stroke-width="1.5"></path><path d="M1394.94 -91.72L1393.36 111.17" stroke="hsl(228.5, 77.2%, 51.5%)" stroke-width="1.5"></path><path d="M1394.94 -91.72L1608.63 -87.34" stroke="hsl(228.5, 77.2%, 51.5%)" stroke-width="1.5"></path><path d="M1394.94 -91.72L1564.66 81.12" stroke="hsl(228.5, 77.2%, 51.5%)" stroke-width="1.5"></path><path d="M1394.94 -91.72L1296.54 226.97" stroke="hsl(228.5, 77.2%, 51.5%)" stroke-width="1.5"></path><path d="M1394.94 -91.72L1445.06 257.86" stroke="hsl(228.5, 77.2%, 51.5%)" stroke-width="1.5"></path><path d="M1396.31 644.29L1396.31 644.29" stroke="hsl(228.5, 77.2%, 51.5%)" stroke-width="1.5"></path><path d="M1396.31 644.29L1398.27 553.98" stroke="hsl(228.5, 77.2%, 51.5%)" stroke-width="1.5"></path><path d="M1608.63 -87.34L1608.63 -87.34" stroke="hsl(228.5, 77.2%, 51.5%)" stroke-width="1.5"></path><path d="M1608.63 -87.34L1564.66 81.12" stroke="hsl(228.5, 77.2%, 51.5%)" stroke-width="1.5"></path><path d="M-96.96 653.6L-96.96 653.6" stroke="hsl(228.5, 77.2%, 51.5%)" stroke-width="1.5"></path><path d="M-96.96 653.6L46.46 545.42" stroke="hsl(228.5, 77.2%, 51.5%)" stroke-width="1.5"></path><path d="M-96.96 653.6L101.07 685.05" stroke="hsl(228.5, 77.2%, 51.5%)" stroke-width="1.5"></path><path d="M-96.96 653.6L205 706.22" stroke="hsl(228.5, 77.2%, 51.5%)" stroke-width="1.5"></path><path d="M-96.96 653.6L233.97 530.56" stroke="hsl(228.5, 77.2%, 51.5%)" stroke-width="1.5"></path><path d="M46.46 545.42L46.46 545.42" stroke="hsl(228.5, 77.2%, 51.5%)" stroke-width="1.5"></path><path d="M101.07 685.05L101.07 685.05" stroke="hsl(228.5, 77.2%, 51.5%)" stroke-width="1.5"></path><path d="M101.07 685.05L205 706.22" stroke="hsl(228.5, 77.2%, 51.5%)" stroke-width="1.5"></path><path d="M101.07 685.05L46.46 545.42" stroke="hsl(228.5, 77.2%, 51.5%)" stroke-width="1.5"></path><path d="M101.07 685.05L233.97 530.56" stroke="hsl(228.5, 77.2%, 51.5%)" stroke-width="1.5"></path><path d="M233.97 530.56L233.97 530.56" stroke="hsl(228.5, 77.2%, 51.5%)" stroke-width="1.5"></path><path d="M233.97 530.56L380.65 518.68" stroke="hsl(228.5, 77.2%, 51.5%)" stroke-width="1.5"></path><path d="M233.97 530.56L205 706.22" stroke="hsl(228.5, 77.2%, 51.5%)" stroke-width="1.5"></path><path d="M233.97 530.56L46.46 545.42" stroke="hsl(228.5, 77.2%, 51.5%)" stroke-width="1.5"></path><path d="M205 706.22L205 706.22" stroke="hsl(228.5, 77.2%, 51.5%)" stroke-width="1.5"></path><path d="M380.65 518.68L380.65 518.68" stroke="hsl(228.5, 77.2%, 51.5%)" stroke-width="1.5"></path><path d="M549.36 500.98L549.36 500.98" stroke="hsl(228.5, 77.2%, 51.5%)" stroke-width="1.5"></path><path d="M549.36 500.98L559.57 666" stroke="hsl(228.5, 77.2%, 51.5%)" stroke-width="1.5"></path><path d="M549.36 500.98L380.65 518.68" stroke="hsl(228.5, 77.2%, 51.5%)" stroke-width="1.5"></path><path d="M549.36 500.98L670.92 664.9" stroke="hsl(228.5, 77.2%, 51.5%)" stroke-width="1.5"></path><path d="M559.57 666L559.57 666" stroke="hsl(228.5, 77.2%, 51.5%)" stroke-width="1.5"></path><path d="M559.57 666L670.92 664.9" stroke="hsl(228.5, 77.2%, 51.5%)" stroke-width="1.5"></path><path d="M559.57 666L695.01 537.02" stroke="hsl(228.5, 77.2%, 51.5%)" stroke-width="1.5"></path><path d="M559.57 666L380.65 518.68" stroke="hsl(228.5, 77.2%, 51.5%)" stroke-width="1.5"></path><path d="M559.57 666L805.68 681.62" stroke="hsl(228.5, 77.2%, 51.5%)" stroke-width="1.5"></path><path d="M670.92 664.9L670.92 664.9" stroke="hsl(228.5, 77.2%, 51.5%)" stroke-width="1.5"></path><path d="M670.92 664.9L805.68 681.62" stroke="hsl(228.5, 77.2%, 51.5%)" stroke-width="1.5"></path><path d="M822.65 345.63L822.65 345.63" stroke="hsl(228.5, 77.2%, 51.5%)" stroke-width="1.5"></path><path d="M822.65 345.63L941.67 382.14" stroke="hsl(228.5, 77.2%, 51.5%)" stroke-width="1.5"></path><path d="M822.65 345.63L842.66 498.76" stroke="hsl(228.5, 77.2%, 51.5%)" stroke-width="1.5"></path><path d="M822.65 345.63L695.01 537.02" stroke="hsl(228.5, 77.2%, 51.5%)" stroke-width="1.5"></path><path d="M822.65 345.63L1006.27 491.03" stroke="hsl(228.5, 77.2%, 51.5%)" stroke-width="1.5"></path><path d="M842.66 498.76L842.66 498.76" stroke="hsl(228.5, 77.2%, 51.5%)" stroke-width="1.5"></path><path d="M842.66 498.76L941.67 382.14" stroke="hsl(228.5, 77.2%, 51.5%)" stroke-width="1.5"></path><path d="M842.66 498.76L1006.27 491.03" stroke="hsl(228.5, 77.2%, 51.5%)" stroke-width="1.5"></path><path d="M842.66 498.76L805.68 681.62" stroke="hsl(228.5, 77.2%, 51.5%)" stroke-width="1.5"></path><path d="M842.66 498.76L948.78 697.83" stroke="hsl(228.5, 77.2%, 51.5%)" stroke-width="1.5"></path><path d="M805.68 681.62L805.68 681.62" stroke="hsl(228.5, 77.2%, 51.5%)" stroke-width="1.5"></path><path d="M805.68 681.62L948.78 697.83" stroke="hsl(228.5, 77.2%, 51.5%)" stroke-width="1.5"></path><path d="M805.68 681.62L695.01 537.02" stroke="hsl(228.5, 77.2%, 51.5%)" stroke-width="1.5"></path><path d="M941.67 382.14L941.67 382.14" stroke="hsl(228.5, 77.2%, 51.5%)" stroke-width="1.5"></path><path d="M941.67 382.14L1006.27 491.03" stroke="hsl(228.5, 77.2%, 51.5%)" stroke-width="1.5"></path><path d="M941.67 382.14L1148.41 348.35" stroke="hsl(228.5, 77.2%, 51.5%)" stroke-width="1.5"></path><path d="M941.67 382.14L1148.28 248.21" stroke="hsl(228.5, 77.2%, 51.5%)" stroke-width="1.5"></path><path d="M1006.27 491.03L1006.27 491.03" stroke="hsl(228.5, 77.2%, 51.5%)" stroke-width="1.5"></path><path d="M1006.27 491.03L1145.32 546.24" stroke="hsl(228.5, 77.2%, 51.5%)" stroke-width="1.5"></path><path d="M948.78 697.83L948.78 697.83" stroke="hsl(228.5, 77.2%, 51.5%)" stroke-width="1.5"></path><path d="M1148.28 248.21L1148.28 248.21" stroke="hsl(228.5, 77.2%, 51.5%)" stroke-width="1.5"></path><path d="M1148.28 248.21L1148.41 348.35" stroke="hsl(228.5, 77.2%, 51.5%)" stroke-width="1.5"></path><path d="M1148.28 248.21L1296.54 226.97" stroke="hsl(228.5, 77.2%, 51.5%)" stroke-width="1.5"></path><path d="M1148.41 348.35L1148.41 348.35" stroke="hsl(228.5, 77.2%, 51.5%)" stroke-width="1.5"></path><path d="M1148.41 348.35L1276.08 376.13" stroke="hsl(228.5, 77.2%, 51.5%)" stroke-width="1.5"></path><path d="M1148.41 348.35L1296.54 226.97" stroke="hsl(228.5, 77.2%, 51.5%)" stroke-width="1.5"></path><path d="M1148.41 348.35L1145.32 546.24" stroke="hsl(228.5, 77.2%, 51.5%)" stroke-width="1.5"></path><path d="M1145.32 546.24L1145.32 546.24" stroke="hsl(228.5, 77.2%, 51.5%)" stroke-width="1.5"></path><path d="M1237.74 -100.16L1237.74 -100.16" stroke="hsl(228.5, 77.2%, 51.5%)" stroke-width="1.5"></path><path d="M1237.74 -100.16L1393.36 111.17" stroke="hsl(228.5, 77.2%, 51.5%)" stroke-width="1.5"></path><path d="M1237.74 -100.16L1296.54 226.97" stroke="hsl(228.5, 77.2%, 51.5%)" stroke-width="1.5"></path><path d="M1237.74 -100.16L1148.28 248.21" stroke="hsl(228.5, 77.2%, 51.5%)" stroke-width="1.5"></path><path d="M1237.74 -100.16L1608.63 -87.34" stroke="hsl(228.5, 77.2%, 51.5%)" stroke-width="1.5"></path><path d="M1237.74 -100.16L1564.66 81.12" stroke="hsl(228.5, 77.2%, 51.5%)" stroke-width="1.5"></path><path d="M1296.54 226.97L1296.54 226.97" stroke="hsl(228.5, 77.2%, 51.5%)" stroke-width="1.5"></path><path d="M1296.54 226.97L1276.08 376.13" stroke="hsl(228.5, 77.2%, 51.5%)" stroke-width="1.5"></path><path d="M1296.54 226.97L1393.36 111.17" stroke="hsl(228.5, 77.2%, 51.5%)" stroke-width="1.5"></path><path d="M1296.54 226.97L1445.06 257.86" stroke="hsl(228.5, 77.2%, 51.5%)" stroke-width="1.5"></path><path d="M1276.08 376.13L1276.08 376.13" stroke="hsl(228.5, 77.2%, 51.5%)" stroke-width="1.5"></path><path d="M1276.08 376.13L1148.28 248.21" stroke="hsl(228.5, 77.2%, 51.5%)" stroke-width="1.5"></path><path d="M1393.36 111.17L1393.36 111.17" stroke="hsl(228.5, 77.2%, 51.5%)" stroke-width="1.5"></path><path d="M1393.36 111.17L1445.06 257.86" stroke="hsl(228.5, 77.2%, 51.5%)" stroke-width="1.5"></path><path d="M1393.36 111.17L1564.66 81.12" stroke="hsl(228.5, 77.2%, 51.5%)" stroke-width="1.5"></path><path d="M1393.36 111.17L1592.23 232.89" stroke="hsl(228.5, 77.2%, 51.5%)" stroke-width="1.5"></path><path d="M1445.06 257.86L1445.06 257.86" stroke="hsl(228.5, 77.2%, 51.5%)" stroke-width="1.5"></path><path d="M1445.06 257.86L1462 372.41" stroke="hsl(228.5, 77.2%, 51.5%)" stroke-width="1.5"></path><path d="M1445.06 257.86L1592.23 232.89" stroke="hsl(228.5, 77.2%, 51.5%)" stroke-width="1.5"></path><path d="M1462 372.41L1462 372.41" stroke="hsl(228.5, 77.2%, 51.5%)" stroke-width="1.5"></path><path d="M1462 372.41L1579.25 360.66" stroke="hsl(228.5, 77.2%, 51.5%)" stroke-width="1.5"></path><path d="M1398.27 553.98L1398.27 553.98" stroke="hsl(228.5, 77.2%, 51.5%)" stroke-width="1.5"></path><path d="M1398.27 553.98L1549.39 512.1" stroke="hsl(228.5, 77.2%, 51.5%)" stroke-width="1.5"></path><path d="M1398.27 553.98L1462 372.41" stroke="hsl(228.5, 77.2%, 51.5%)" stroke-width="1.5"></path><path d="M1398.27 553.98L1276.08 376.13" stroke="hsl(228.5, 77.2%, 51.5%)" stroke-width="1.5"></path><path d="M1564.66 81.12L1564.66 81.12" stroke="hsl(228.5, 77.2%, 51.5%)" stroke-width="1.5"></path><path d="M1564.66 81.12L1592.23 232.89" stroke="hsl(228.5, 77.2%, 51.5%)" stroke-width="1.5"></path><path d="M1564.66 81.12L1445.06 257.86" stroke="hsl(228.5, 77.2%, 51.5%)" stroke-width="1.5"></path><path d="M1564.66 81.12L1579.25 360.66" stroke="hsl(228.5, 77.2%, 51.5%)" stroke-width="1.5"></path><path d="M1592.23 232.89L1592.23 232.89" stroke="hsl(228.5, 77.2%, 51.5%)" stroke-width="1.5"></path><path d="M1592.23 232.89L1579.25 360.66" stroke="hsl(228.5, 77.2%, 51.5%)" stroke-width="1.5"></path><path d="M1592.23 232.89L1462 372.41" stroke="hsl(228.5, 77.2%, 51.5%)" stroke-width="1.5"></path><path d="M1579.25 360.66L1579.25 360.66" stroke="hsl(228.5, 77.2%, 51.5%)" stroke-width="1.5"></path><path d="M1579.25 360.66L1549.39 512.1" stroke="hsl(228.5, 77.2%, 51.5%)" stroke-width="1.5"></path><path d="M1579.25 360.66L1445.06 257.86" stroke="hsl(228.5, 77.2%, 51.5%)" stroke-width="1.5"></path><path d="M1579.25 360.66L1398.27 553.98" stroke="hsl(228.5, 77.2%, 51.5%)" stroke-width="1.5"></path><path d="M1549.39 512.1L1549.39 512.1" stroke="hsl(228.5, 77.2%, 51.5%)" stroke-width="1.5"></path><path d="M1549.39 512.1L1462 372.41" stroke="hsl(228.5, 77.2%, 51.5%)" stroke-width="1.5"></path><path d="M1549.39 512.1L1568.03 706.77" stroke="hsl(228.5, 77.2%, 51.5%)" stroke-width="1.5"></path><path d="M1549.39 512.1L1396.31 644.29" stroke="hsl(228.5, 77.2%, 51.5%)" stroke-width="1.5"></path><path d="M1568.03 706.77L1568.03 706.77" stroke="hsl(228.5, 77.2%, 51.5%)" stroke-width="1.5"></path><path d="M1568.03 706.77L1396.31 644.29" stroke="hsl(228.5, 77.2%, 51.5%)" stroke-width="1.5"></path><path d="M1568.03 706.77L1398.27 553.98" stroke="hsl(228.5, 77.2%, 51.5%)" stroke-width="1.5"></path><path d="M1568.03 706.77L1272.95 675.8" stroke="hsl(228.5, 77.2%, 51.5%)" stroke-width="1.5"></path><path d="M1568.03 706.77L1294.57 515.34" stroke="hsl(228.5, 77.2%, 51.5%)" stroke-width="1.5"></path><circle r="25" cx="-52.74" cy="501.63" fill="url(#SvgjsRadialGradient1003)"></circle><circle r="25" cx="384.92" cy="644" fill="url(#SvgjsRadialGradient1003)"></circle><circle r="25" cx="695.01" cy="537.02" fill="url(#SvgjsRadialGradient1003)"></circle><circle r="25" cx="1158.77" cy="666.99" fill="url(#SvgjsRadialGradient1003)"></circle><circle r="25" cx="1294.57" cy="515.34" fill="url(#SvgjsRadialGradient1003)"></circle><circle r="25" cx="1272.95" cy="675.8" fill="url(#SvgjsRadialGradient1003)"></circle><circle r="25" cx="1394.94" cy="-91.72" fill="url(#SvgjsRadialGradient1003)"></circle><circle r="25" cx="1396.31" cy="644.29" fill="url(#SvgjsRadialGradient1003)"></circle><circle r="25" cx="1608.63" cy="-87.34" fill="url(#SvgjsRadialGradient1003)"></circle><circle r="5" cx="-96.96" cy="653.6" fill="#8b9ad9"></circle><circle r="5" cx="46.46" cy="545.42" fill="#8b9ad9"></circle><circle r="5" cx="101.07" cy="685.05" fill="#8b9ad9"></circle><circle r="5" cx="233.97" cy="530.56" fill="#8b9ad9"></circle><circle r="5" cx="205" cy="706.22" fill="#8b9ad9"></circle><circle r="5" cx="380.65" cy="518.68" fill="#8b9ad9"></circle><circle r="5" cx="549.36" cy="500.98" fill="#8b9ad9"></circle><circle r="5" cx="559.57" cy="666" fill="#8b9ad9"></circle><circle r="5" cx="670.92" cy="664.9" fill="#8b9ad9"></circle><circle r="5" cx="822.65" cy="345.63" fill="#8b9ad9"></circle><circle r="5" cx="842.66" cy="498.76" fill="#8b9ad9"></circle><circle r="5" cx="805.68" cy="681.62" fill="#8b9ad9"></circle><circle r="5" cx="941.67" cy="382.14" fill="#8b9ad9"></circle><circle r="5" cx="1006.27" cy="491.03" fill="#8b9ad9"></circle><circle r="5" cx="948.78" cy="697.83" fill="#8b9ad9"></circle><circle r="5" cx="1148.28" cy="248.21" fill="#8b9ad9"></circle><circle r="5" cx="1148.41" cy="348.35" fill="#8b9ad9"></circle><circle r="5" cx="1145.32" cy="546.24" fill="#8b9ad9"></circle><circle r="5" cx="1237.74" cy="-100.16" fill="#8b9ad9"></circle><circle r="5" cx="1296.54" cy="226.97" fill="#8b9ad9"></circle><circle r="5" cx="1276.08" cy="376.13" fill="#8b9ad9"></circle><circle r="5" cx="1393.36" cy="111.17" fill="#8b9ad9"></circle><circle r="5" cx="1445.06" cy="257.86" fill="#8b9ad9"></circle><circle r="5" cx="1462" cy="372.41" fill="#8b9ad9"></circle><circle r="5" cx="1398.27" cy="553.98" fill="#8b9ad9"></circle><circle r="5" cx="1564.66" cy="81.12" fill="#8b9ad9"></circle><circle r="5" cx="1592.23" cy="232.89" fill="#8b9ad9"></circle><circle r="5" cx="1579.25" cy="360.66" fill="#8b9ad9"></circle><circle r="5" cx="1549.39" cy="512.1" fill="#8b9ad9"></circle><circle r="5" cx="1568.03" cy="706.77" fill="#8b9ad9"></circle></g><defs><mask id="SvgjsMask1002"><rect width="1440" height="560" fill="#ffffff"></rect></mask><radialGradient id="SvgjsRadialGradient1003"><stop stop-color="#ffffff" offset="0.1"></stop><stop stop-color="#1735b3" offset="0.2"></stop><stop stop-color="rgba(23, 53, 179, 0)" offset="1"></stop></radialGradient></defs></svg>