<svg xmlns="http://www.w3.org/2000/svg" version="1.1" xmlns:xlink="http://www.w3.org/1999/xlink" xmlns:svgjs="http://svgjs.com/svgjs" width="1440" height="720" preserveAspectRatio="none" viewBox="0 0 1440 720"><g mask="url(&quot;#SvgjsMask1048&quot;)" fill="none"><rect width="1440" height="720" x="0" y="0" fill="rgba(217, 217, 217, 1)"></rect><path d="M59 720L779 0L1011.5 0L291.5 720z" fill="url(#SvgjsLinearGradient1049)"></path><path d="M535.2 720L1255.2 0L1339.2 0L619.2 720z" fill="url(#SvgjsLinearGradient1049)"></path><path d="M1405 720L685 0L118 0L838 720z" fill="url(#SvgjsLinearGradient1050)"></path><path d="M941.8 720L221.79999999999995 0L-483.20000000000005 0L236.79999999999995 720z" fill="url(#SvgjsLinearGradient1050)"></path><path d="M850.1804614230714 720L1440 130.1804614230714L1440 720z" fill="url(#SvgjsLinearGradient1049)"></path><path d="M0 720L589.8195385769286 720L 0 130.1804614230714z" fill="url(#SvgjsLinearGradient1050)"></path></g><defs><mask id="SvgjsMask1048"><rect width="1440" height="720" fill="#ffffff"></rect></mask><linearGradient x1="0%" y1="100%" x2="100%" y2="0%" id="SvgjsLinearGradient1049"><stop stop-color="rgba(127, 126, 126, 0.2)" offset="0"></stop><stop stop-opacity="0" stop-color="rgba(127, 126, 126, 0.2)" offset="0.66"></stop></linearGradient><linearGradient x1="100%" y1="100%" x2="0%" y2="0%" id="SvgjsLinearGradient1050"><stop stop-color="rgba(127, 126, 126, 0.2)" offset="0"></stop><stop stop-opacity="0" stop-color="rgba(127, 126, 126, 0.2)" offset="0.66"></stop></linearGradient></defs></svg>